<?xml version="1.0" encoding="UTF-8" standalone="no"?>
<svg width="512" height="512" viewBox="0 0 512 512" fill="none" xmlns="http://www.w3.org/2000/svg">
  <rect width="512" height="512" fill="#121a29"/>
  <path d="M256 100C169.5 100 100 169.5 100 256C100 342.5 169.5 412 256 412C342.5 412 412 342.5 412 256C412 169.5 342.5 100 256 100Z" fill="#1A2436"/>
  <path d="M306 231C306 226.5 309.5 223 314 223H372C376.5 223 380 226.5 380 231V289C380 293.5 376.5 297 372 297H314C309.5 297 306 293.5 306 289V231Z" fill="#00FFCC"/>
  <path d="M132 231C132 226.5 135.5 223 140 223H198C202.5 223 206 226.5 206 231V289C206 293.5 202.5 297 198 297H140C135.5 297 132 293.5 132 289V231Z" fill="#00FFCC"/>
  <path d="M219 231C219 226.5 222.5 223 227 223H285C289.5 223 293 226.5 293 231V289C293 293.5 289.5 297 285 297H227C222.5 297 219 293.5 219 289V231Z" fill="#00FFCC"/>
  <path d="M255.5 180L280 140H230L255.5 180Z" fill="#00FFCC"/>
  <path d="M255.5 332L280 372H230L255.5 332Z" fill="#00FFCC"/>
</svg>